<svg width="33" height="33" viewBox="0 0 33 33" fill="none" xmlns="http://www.w3.org/2000/svg">
<rect width="33" height="33" rx="16.5" fill="#FCFFF6"/>
<path d="M13.0227 8C10.2535 8 8 10.2535 8 13.0227V19.9773C8 22.7465 10.2535 25 13.0227 25H19.9773C22.7465 25 25 22.7465 25 19.9773V13.0227C25 10.2535 22.7465 8 19.9773 8H13.0227ZM13.0227 8.77273H19.9773C22.3289 8.77273 24.2273 10.6711 24.2273 13.0227V19.9773C24.2273 22.3289 22.3289 24.2273 19.9773 24.2273H13.0227C10.6711 24.2273 8.77273 22.3289 8.77273 19.9773V13.0227C8.77273 10.6711 10.6711 8.77273 13.0227 8.77273ZM21.1364 11.0909C20.9314 11.0909 20.7349 11.1723 20.59 11.3172C20.445 11.4622 20.3636 11.6587 20.3636 11.8636C20.3636 12.0686 20.445 12.2651 20.59 12.41C20.7349 12.555 20.9314 12.6364 21.1364 12.6364C21.3413 12.6364 21.5379 12.555 21.6828 12.41C21.8277 12.2651 21.9091 12.0686 21.9091 11.8636C21.9091 11.6587 21.8277 11.4622 21.6828 11.3172C21.5379 11.1723 21.3413 11.0909 21.1364 11.0909ZM16.5 12.25C14.1574 12.25 12.25 14.1574 12.25 16.5C12.25 18.8426 14.1574 20.75 16.5 20.75C18.8426 20.75 20.75 18.8426 20.75 16.5C20.75 14.1574 18.8426 12.25 16.5 12.25ZM16.5 13.0227C18.425 13.0227 19.9773 14.575 19.9773 16.5C19.9773 18.425 18.425 19.9773 16.5 19.9773C14.575 19.9773 13.0227 18.425 13.0227 16.5C13.0227 14.575 14.575 13.0227 16.5 13.0227Z" fill="#2A5B7A"/>
</svg>
