<svg width="33" height="33" viewBox="0 0 33 33" fill="none" xmlns="http://www.w3.org/2000/svg">
<rect width="33" height="33" rx="16.5" fill="#FCFFF6"/>
<path d="M23.056 10.001C22.8788 10.0085 22.7063 10.056 22.5507 10.1159C22.3967 10.1754 21.5102 10.5395 20.2011 11.078C18.8919 11.6165 17.1902 12.3178 15.5033 13.0131C12.1294 14.4039 8.81403 15.7722 8.81403 15.7722L8.83819 15.7634C8.83819 15.7634 8.63809 15.8277 8.43522 15.9637C8.33378 16.0317 8.22465 16.1195 8.1353 16.2475C8.04594 16.3755 7.98062 16.5569 8.00524 16.7487C8.0917 17.4226 8.81758 17.6137 8.81758 17.6137L8.82042 17.6151L12.0599 18.6818C12.1424 18.9469 13.0424 21.8368 13.2403 22.4488C13.3497 22.7872 13.452 22.9824 13.5587 23.1155C13.6122 23.1821 13.6681 23.2337 13.73 23.2714C13.7546 23.2864 13.7805 23.2976 13.8061 23.3077H13.8075C13.8106 23.309 13.8136 23.3091 13.8167 23.3104L13.8082 23.3083C13.8142 23.3107 13.82 23.3145 13.826 23.3165C13.8375 23.3204 13.8446 23.3203 13.8594 23.3234C14.2304 23.448 14.5374 23.2167 14.5374 23.2167L14.5502 23.2071L16.5402 21.4313L19.7697 23.854L19.8102 23.8718C20.3755 24.1133 20.8867 23.9785 21.1698 23.7569C21.4529 23.5353 21.5642 23.2495 21.5642 23.2495L21.5763 23.2194L23.9494 11.3194C24.0101 11.0532 24.0187 10.823 23.9615 10.6151C23.9042 10.4071 23.7651 10.2264 23.5905 10.1262C23.4159 10.026 23.2332 9.99355 23.056 10.001ZM23.0752 10.7129C23.1472 10.7097 23.2005 10.7176 23.2173 10.7272C23.2342 10.7369 23.2417 10.7356 23.2578 10.7942C23.274 10.8529 23.2827 10.9764 23.2387 11.1696L23.2372 11.1737L20.8777 23.0047C20.8721 23.0166 20.8229 23.1261 20.7107 23.214C20.5961 23.3036 20.4688 23.3736 20.1307 23.2372L16.5992 20.5875L16.4997 20.5123L16.4975 20.5144L15.4414 19.7519L21.3766 13.0337C21.4222 12.9822 21.4513 12.9191 21.4604 12.852C21.4696 12.7849 21.4583 12.7167 21.428 12.6557C21.3977 12.5946 21.3497 12.5433 21.2897 12.508C21.2298 12.4727 21.1605 12.4548 21.0902 12.4565C21.0215 12.4583 20.9547 12.4786 20.8976 12.5153L12.3093 18.024L9.06491 16.9552C9.06491 16.9552 8.74274 16.7827 8.72732 16.6625C8.72647 16.6559 8.72266 16.6619 8.7394 16.6379C8.75614 16.614 8.79823 16.5735 8.85098 16.5381C8.9565 16.4674 9.07699 16.4246 9.07699 16.4246L9.08907 16.4205L9.10116 16.4157C9.10116 16.4157 12.4167 15.0473 15.7904 13.6566C17.4772 12.9613 19.1787 12.2605 20.4875 11.7221C21.796 11.1839 22.7414 10.7965 22.8215 10.7655C22.9126 10.7304 23.0032 10.7161 23.0752 10.7129ZM19.1393 14.4847L14.6383 19.5796L14.6362 19.5817C14.6292 19.5898 14.6225 19.5982 14.6163 19.607C14.6091 19.6164 14.6025 19.6263 14.5964 19.6364C14.5711 19.6777 14.5549 19.7235 14.5488 19.7711C14.5488 19.772 14.5488 19.7729 14.5488 19.7738L13.9624 22.3107C13.9527 22.2833 13.9459 22.2733 13.9354 22.2409V22.2403C13.7492 21.6645 12.9001 18.9391 12.7826 18.5621L19.1393 14.4847ZM15.1465 20.4145L15.9553 20.9985L14.767 22.0584L15.1465 20.4145Z" fill="black" fill-opacity="0.7"/>
</svg>
