<svg width="16" height="14" viewBox="0 0 16 14" fill="none" xmlns="http://www.w3.org/2000/svg">
<path d="M15.056 0.00103C14.8788 0.00851085 14.7063 0.0559686 14.5507 0.115907C14.3967 0.175445 13.5102 0.539492 12.2011 1.07801C10.8919 1.61652 9.19018 2.31778 7.50326 3.01314C4.12941 4.40387 0.814028 5.77225 0.814028 5.77225L0.838192 5.76336C0.838192 5.76336 0.638092 5.82771 0.435218 5.96371C0.333781 6.03171 0.224651 6.1195 0.135297 6.24749C0.0459429 6.37547 -0.0193809 6.55686 0.00523652 6.74871C0.0917039 7.42257 0.817581 7.61371 0.817581 7.61371L0.820424 7.61507L4.05985 8.68179C4.14245 8.94689 5.04239 11.8368 5.24035 12.4488C5.34968 12.7872 5.45201 12.9824 5.55875 13.1155C5.61216 13.1821 5.66814 13.2337 5.73003 13.2714C5.75462 13.2864 5.78048 13.2976 5.80608 13.3077H5.8075C5.81064 13.309 5.8136 13.3091 5.81674 13.3104L5.80821 13.3083C5.81415 13.3107 5.82002 13.3145 5.82598 13.3165C5.83752 13.3204 5.8446 13.3203 5.85938 13.3234C6.23038 13.448 6.5374 13.2167 6.5374 13.2167L6.55019 13.2071L8.54019 11.4313L11.7697 13.854L11.8102 13.8718C12.3755 14.1133 12.8867 13.9785 13.1698 13.7569C13.4529 13.5353 13.5642 13.2495 13.5642 13.2495L13.5763 13.2194L15.9494 1.31938C16.0101 1.05315 16.0187 0.823026 15.9615 0.615077C15.9042 0.407127 15.765 0.226359 15.5905 0.126164C15.4159 0.0259698 15.2332 -0.00645085 15.056 0.00103ZM15.0752 0.712859C15.1472 0.709652 15.2005 0.717569 15.2173 0.727219C15.2342 0.736869 15.2417 0.735599 15.2578 0.794231C15.274 0.852863 15.2827 0.976357 15.2387 1.16963L15.2372 1.17374L12.8777 13.0047C12.8721 13.0166 12.8229 13.1261 12.7107 13.214C12.5961 13.3036 12.4688 13.3736 12.1307 13.2372L8.59918 10.5875L8.49968 10.5123L8.49755 10.5144L7.44143 9.75193L13.3766 3.03366C13.4222 2.98217 13.4513 2.91907 13.4604 2.85199C13.4696 2.78491 13.4583 2.71673 13.428 2.65568C13.3977 2.59464 13.3497 2.54334 13.2897 2.508C13.2298 2.47266 13.1605 2.45478 13.0902 2.45653C13.0215 2.45825 12.9547 2.47864 12.8976 2.51534L4.30931 8.02398L1.06491 6.95521C1.06491 6.95521 0.742741 6.78272 0.727321 6.66255C0.726466 6.65589 0.722662 6.66192 0.739403 6.63793C0.756144 6.61395 0.798226 6.57347 0.850985 6.5381C0.956504 6.46736 1.07699 6.42459 1.07699 6.42459L1.08907 6.42049L1.10116 6.4157C1.10116 6.4157 4.41671 5.04725 7.79039 3.65659C9.47722 2.96126 11.1787 2.26052 12.4875 1.72214C13.796 1.1839 14.7414 0.796476 14.8215 0.765512C14.9126 0.730397 15.0032 0.716067 15.0752 0.712859ZM11.1393 4.48467L6.63832 9.57961L6.63619 9.58167C6.62916 9.58981 6.62252 9.59825 6.61629 9.60697C6.60915 9.61644 6.60251 9.62625 6.59639 9.63637C6.5711 9.67766 6.55489 9.72351 6.54877 9.77108C6.54877 9.77199 6.54877 9.7729 6.54877 9.77381L5.96243 12.3107C5.95269 12.2833 5.94586 12.2733 5.93543 12.2409V12.2403C5.74919 11.6645 4.90012 8.93907 4.78265 8.56213L11.1393 4.48467ZM7.14648 10.4145L7.95527 10.9985L6.76696 12.0584L7.14648 10.4145Z" fill="#2A5B7A"/>
</svg>
