<svg xmlns="http://www.w3.org/2000/svg" width="500" height="500" viewBox="0 0 500 500">
  <defs>
    <radialGradient id="starGlow" cx="50%" cy="50%" r="50%" fx="50%" fy="50%">
      <stop offset="0%" stop-color="white" />
      <stop offset="100%" stop-color="rgba(255,255,255,0)" />
    </radialGradient>
  </defs>
  
  <!-- Фонові зірки -->
  <g fill="white" opacity="0.8">
    <circle cx="50" cy="50" r="1" />
    <circle cx="120" cy="80" r="1.2" />
    <circle cx="200" cy="30" r="0.8" />
    <circle cx="280" cy="90" r="1" />
    <circle cx="350" cy="40" r="1.3" />
    <circle cx="420" cy="70" r="0.9" />
    <circle cx="80" cy="150" r="1.1" />
    <circle cx="150" cy="120" r="0.7" />
    <circle cx="230" cy="170" r="1" />
    <circle cx="300" cy="130" r="1.2" />
    <circle cx="380" cy="180" r="0.8" />
    <circle cx="450" cy="140" r="1" />
    <circle cx="40" cy="230" r="1.3" />
    <circle cx="100" cy="200" r="0.9" />
    <circle cx="180" cy="250" r="1.1" />
    <circle cx="260" cy="210" r="0.7" />
    <circle cx="330" cy="260" r="1" />
    <circle cx="410" cy="220" r="1.2" />
    <circle cx="70" cy="310" r="0.8" />
    <circle cx="140" cy="280" r="1" />
    <circle cx="210" cy="330" r="1.3" />
    <circle cx="290" cy="290" r="0.9" />
    <circle cx="360" cy="340" r="1.1" />
    <circle cx="440" cy="300" r="0.7" />
    <circle cx="30" cy="390" r="1" />
    <circle cx="110" cy="350" r="1.2" />
    <circle cx="180" cy="400" r="0.8" />
    <circle cx="250" cy="360" r="1" />
    <circle cx="330" cy="410" r="1.3" />
    <circle cx="400" cy="370" r="0.9" />
    <circle cx="60" cy="450" r="1.1" />
    <circle cx="130" cy="420" r="0.7" />
    <circle cx="210" cy="470" r="1" />
    <circle cx="280" cy="430" r="1.2" />
    <circle cx="350" cy="480" r="0.8" />
    <circle cx="430" cy="440" r="1" />
  </g>
  
  <!-- Більші зірки з сяйвом -->
  <g>
    <circle cx="100" cy="100" r="2" fill="white" />
    <circle cx="100" cy="100" r="6" fill="url(#starGlow)" opacity="0.6" />
    
    <circle cx="300" cy="200" r="2.5" fill="white" />
    <circle cx="300" cy="200" r="8" fill="url(#starGlow)" opacity="0.7" />
    
    <circle cx="150" cy="350" r="2" fill="white" />
    <circle cx="150" cy="350" r="7" fill="url(#starGlow)" opacity="0.5" />
    
    <circle cx="400" cy="400" r="3" fill="white" />
    <circle cx="400" cy="400" r="10" fill="url(#starGlow)" opacity="0.8" />
  </g>
</svg>